<?xml version="1.0" encoding="UTF-8"?>
<!DOCTYPE svg PUBLIC "-//W3C//DTD SVG 1.1//EN" "http://www.w3.org/Graphics/SVG/1.1/DTD/svg11.dtd">
<!-- Creator: CorelDRAW -->
<svg xmlns="http://www.w3.org/2000/svg" xml:space="preserve" width="512px" height="512px" version="1.1" style="shape-rendering:geometricPrecision; text-rendering:geometricPrecision; image-rendering:optimizeQuality; fill-rule:evenodd; clip-rule:evenodd"
viewBox="0 0 505.56 505.56"
 xmlns:xlink="http://www.w3.org/1999/xlink"
 xmlns:xodm="http://www.corel.com/coreldraw/odm/2003">
 <defs>
  <style type="text/css">
   <![CDATA[
    .fil0 {fill:#888888;fill-rule:nonzero}
    .fil2 {fill:#B8B8B8;fill-rule:nonzero}
    .fil1 {fill:#EAEAEA;fill-rule:nonzero}
   ]]>
  </style>
 </defs>
 <g id="Слой_x0020_1">
  <metadata id="CorelCorpID_0Corel-Layer"/>
  <g id="Background">
   <path id="Path_x0020_0" class="fil0" d="M157.52 223.12c-3.48,0.84 -9.79,3.16 -14.01,5.16 -4.11,2 -10.32,5.9 -13.58,8.63 -3.38,2.64 -8.75,7.38 -11.91,10.33 -3.16,2.95 -9.79,9.16 -14.74,13.79 -4.95,4.53 -11.27,10.43 -14.22,13.17 -2.85,2.63 -8.32,7.69 -12.11,11.16 -3.8,3.48 -13.91,12.85 -22.65,20.86 -8.64,8.11 -18.22,16.85 -21.06,19.48 -2.85,2.74 -8.54,8.01 -12.64,11.8 -4.01,3.69 -11.17,10.32 -15.8,14.54 -1.67,1.55 -3.32,3.09 -4.8,4.46l0 149.06 505.56 0 0 -9.7c-3.63,-3.26 -6.43,-5.64 -6.47,-5.85 -0.21,-0.52 -53.4,-50.03 -118.28,-110.17 -64.88,-60.03 -123.44,-114.17 -130.08,-120.39 -6.63,-6.21 -14.74,-13.58 -17.9,-16.32 -3.16,-2.74 -6.43,-5.37 -7.16,-5.9 -0.64,-0.63 -3.06,-2 -5.27,-3.27 -2.11,-1.26 -4.32,-2.63 -4.95,-3.05 -0.63,-0.53 -3.69,-1.9 -6.85,-3.16 -3.16,-1.26 -9.37,-3.26 -13.69,-4.32 -5.48,-1.37 -11.48,-2 -19.48,-1.89 -6.43,0 -14.43,0.73 -17.91,1.58l0 0z"/>
   <path id="Path_x0020_1" class="fil1" d="M0 356.44c6.07,-5.66 11.45,-10.73 12.07,-11.25 0.63,-0.63 10.42,-9.59 21.69,-20.01 11.27,-10.43 23.6,-21.81 27.39,-25.28 3.79,-3.58 13.27,-12.32 21.06,-19.59 7.8,-7.16 17.28,-15.91 21.07,-19.49 3.79,-3.47 10.21,-9.48 14.22,-13.16 4,-3.69 9.48,-8.53 12.11,-10.64 2.63,-2.11 7.79,-5.48 11.59,-7.58 3.79,-2.01 10.63,-4.74 15.27,-5.9 5.69,-1.48 11.79,-2.21 18.96,-2.32 6.32,0 13.48,0.63 17.9,1.69 4,0.94 10.01,2.73 13.17,3.89 3.16,1.27 8.63,3.9 12.11,5.9 3.48,2 8.43,5.37 11.06,7.58 2.53,2.11 9.06,7.9 14.43,12.96 5.37,5.16 10.22,9.16 10.74,8.95 0.63,-0.1 21.07,-18.75 45.5,-41.29 24.44,-22.64 46.87,-43.07 49.82,-45.6 2.95,-2.42 8.43,-6.11 12.22,-8.11 3.79,-2 10.64,-4.64 15.27,-5.79 6.22,-1.69 11.48,-2.32 20.01,-2.32 8.43,0.1 13.91,0.63 20.02,2.32 4.63,1.15 11.69,3.79 15.8,5.68 4.1,2 10.21,5.69 13.69,8.32 3.47,2.53 20.75,18.01 38.44,34.45 7.17,6.61 14.1,13.04 19.95,18.48l0 -228.33 -505.56 0 0 356.44z"/>
   <path id="Path_x0020_2" class="fil2" d="M388.18 159.29c-3.47,0.42 -9.16,1.68 -12.64,2.63 -3.47,1.06 -8.95,3.16 -12.11,4.74 -3.16,1.69 -7.69,4.32 -10,6.01 -2.32,1.79 -17.49,15.37 -33.71,30.33 -16.22,14.96 -34.97,32.33 -41.6,38.44 -6.64,6.22 -14.54,13.49 -17.38,16.12 -2.95,2.74 -5.58,4.95 -6.11,4.95 -0.42,0 1.79,2.32 4.74,5.05 3.06,2.85 56.98,52.67 119.86,110.81 44.35,41 97.97,92.1 126.33,119.26l0 -269.14 -3.62 -3.37c-7.48,-6.95 -14.22,-13.06 -14.85,-13.7 -0.64,-0.63 -6.96,-6.53 -14.12,-13.16 -7.16,-6.64 -14.43,-13.48 -16.22,-15.06 -1.79,-1.58 -6.11,-5.06 -9.58,-7.59 -3.48,-2.42 -8.43,-5.68 -11.06,-7.05 -2.64,-1.37 -7.59,-3.48 -11.06,-4.74 -3.48,-1.27 -8.95,-2.74 -12.11,-3.37 -3.16,-0.53 -8.64,-1.27 -12.12,-1.58 -3.47,-0.21 -9.16,0 -12.64,0.42l0 0z"/>
   <path id="Path_x0020_3" class="fil2" d="M183.43 35.85c-2.11,1.58 -2.32,2.84 -2.42,13.37 -0.11,7.17 0.31,12.54 1.05,14.01 1.05,1.9 2,2.32 5.16,2.11 3.06,-0.21 4.32,-0.95 5.27,-2.95 0.84,-1.58 1.37,-6.85 1.37,-13.38 0,-9.48 -0.32,-11.16 -2.11,-12.95 -1.16,-1.16 -2.95,-2.11 -4.11,-2.11 -1.05,0 -2.95,0.84 -4.21,1.9l0 0zm-38.13 10.53c-0.73,0.95 -1.37,2.74 -1.37,3.9 0.11,1.16 2,5.68 4.43,10 2.31,4.32 5.37,8.96 6.74,10.32 1.79,1.69 3.37,2.32 6.11,2.11 3.47,-0.31 3.68,-0.53 4,-4.21 0.1,-2.42 -0.63,-5.79 -2,-8.43 -1.27,-2.53 -3.9,-7.05 -5.79,-10 -3.16,-4.95 -4.01,-5.59 -7.17,-5.59 -2.1,0 -4.11,0.74 -4.95,1.9l0 0zm73.41 1.58c-1.36,1.79 -4.21,6.42 -6.32,10.22 -2.1,3.79 -3.79,7.79 -3.79,8.95 0,1.16 0.74,2.95 1.79,3.9 1.06,1.05 3.16,1.89 4.85,1.89 2,0 3.58,-0.95 5.37,-3.37 1.37,-1.89 4.21,-6.53 6.32,-10.32 2.11,-3.79 3.79,-7.9 3.79,-9.16 0,-1.37 -0.74,-3.16 -1.58,-4.01 -0.84,-0.84 -2.95,-1.58 -4.74,-1.58 -2.21,0 -3.79,0.95 -5.69,3.48l0 0zm-99.32 24.44c-1.89,1.26 -2.31,2.42 -2.1,5.47 0.21,3.69 0.73,4.21 8.63,8.95 4.64,2.74 9.59,5.48 11.06,6.01 1.76,0.63 3.51,0.52 5.27,-0.32 1.79,-0.84 2.74,-2.21 2.95,-4.32 0.21,-2.21 -0.53,-3.89 -2.11,-5.58 -1.37,-1.37 -6.21,-4.53 -10.85,-7.16 -4.63,-2.53 -8.85,-4.63 -9.48,-4.63 -0.63,0 -2.1,0.73 -3.37,1.58l0 0zm124.18 2.42c-2.95,1.58 -7.58,4.42 -10.22,6.32 -3.47,2.42 -4.73,4.11 -4.73,6 0,1.58 1.05,3.48 2.63,4.74 2.42,1.9 2.95,2 6.53,0.63 2.21,-0.73 5.9,-2.31 8.21,-3.47 2.32,-1.16 6.01,-3.79 8.11,-5.69 2.22,-2.11 3.9,-4.64 4.01,-5.9 0,-1.37 -0.74,-3.16 -1.58,-4 -0.85,-0.84 -2.95,-1.58 -4.53,-1.58 -1.69,0 -5.37,1.26 -8.43,2.95l0 0zm-63.93 0.21c-2.32,0.42 -6.53,1.89 -9.48,3.26 -2.84,1.37 -7.37,4.43 -10.01,6.85 -2.63,2.32 -6.21,7.06 -8.11,10.53 -1.79,3.37 -3.79,9.06 -4.42,12.54 -0.84,4.31 -0.84,8.32 -0.11,12.63 0.64,3.48 2.22,8.85 3.69,11.91 1.47,2.95 4.85,7.79 7.69,10.53 2.74,2.74 7.79,6.42 11.27,8.21 5.69,2.74 7.37,3.06 16.85,3.06 9.48,0 11.17,-0.32 17.27,-3.16 4.32,-2 8.54,-5.16 11.8,-8.64 2.84,-3.05 6.43,-8.32 8.01,-11.58 1.89,-4.11 2.94,-8.53 3.26,-13.49 0.32,-5.05 -0.11,-9.37 -1.37,-13.69 -0.95,-3.47 -3.26,-8.63 -5.05,-11.48 -1.9,-2.84 -5.27,-6.74 -7.59,-8.53 -2.32,-1.9 -6.11,-4.42 -8.42,-5.58 -2.32,-1.16 -6.74,-2.64 -9.69,-3.27 -3.06,-0.63 -6.85,-1.16 -8.43,-1.05 -1.69,0.11 -4.85,0.53 -7.16,0.95l0 0zm-66.88 33.39c-1.48,0.31 -3.48,1.26 -4.53,2.21 -1.06,1.05 -1.79,2.74 -1.79,3.9 0,1.15 0.42,2.63 0.84,3.26 0.42,0.63 1.79,1.69 3.16,2.42 1.26,0.64 6.95,1.16 12.64,1.16 7.37,0 10.85,-0.42 12.64,-1.58 1.58,-1.05 2.32,-2.63 2.32,-4.95 0.1,-1.89 -0.53,-4 -1.27,-4.63 -0.74,-0.74 -5.9,-1.48 -11.37,-1.79 -5.48,-0.32 -11.17,-0.32 -12.64,0l0 0zm129.65 0.31c-2,0.42 -4.21,1.79 -5.05,2.85 -0.74,1.05 -1.37,2.74 -1.37,3.79 0,0.95 1.26,2.74 2.95,3.9 2.42,1.89 4.42,2.21 13.37,2.1 7.59,0 11.17,-0.42 12.96,-1.58 1.58,-1.05 2.32,-2.63 2.32,-4.95 0.1,-1.89 -0.53,-4 -1.27,-4.63 -0.74,-0.74 -5.69,-1.48 -10.85,-1.79 -5.16,-0.32 -11.06,-0.21 -13.06,0.31l0 0zm-109.11 29.92c-2.85,1.36 -7.59,4.1 -10.54,6.1 -4.1,2.74 -5.37,4.22 -5.58,6.64 -0.21,2 0.42,3.9 1.58,5.06 1.05,1.05 2.84,1.79 4,1.79 1.16,0 5.69,-2.01 10.01,-4.32 4.32,-2.32 8.95,-5.27 10.32,-6.53 1.37,-1.37 2.32,-3.58 2.32,-5.16 0,-1.9 -0.85,-3.58 -2.32,-4.53 -1.37,-0.85 -2.84,-1.58 -3.48,-1.58 -0.63,0 -3.37,1.16 -6.31,2.53zm97.42 -0.43c-1.16,1.16 -2.1,3.06 -2.1,4.22 0,1.16 1.15,3.16 2.52,4.53 1.37,1.26 6.22,4.31 10.75,6.74 4.63,2.42 9.26,4.53 10.42,4.53 1.16,0 2.95,-0.74 3.9,-1.8 1.05,-1.05 1.9,-2.94 1.9,-4.21 0,-1.37 -1.16,-3.47 -2.53,-4.74 -1.37,-1.37 -6.11,-4.42 -10.53,-6.84 -4.43,-2.53 -8.96,-4.53 -10.11,-4.53 -1.16,0 -3.06,0.95 -4.22,2.1l0 0zm-75.62 20.86c-1.58,1.58 -4.85,6.84 -7.27,11.58 -4.11,7.8 -4.42,8.96 -3.16,11.27 0.63,1.48 2.21,2.95 3.37,3.27 1.16,0.31 3.06,0.42 4.21,0.1 1.27,-0.42 4.43,-4.42 7.69,-9.9 3.69,-6.11 5.48,-10.42 5.48,-12.64 0,-1.89 -0.74,-4.21 -1.58,-5.05 -0.84,-0.84 -2.53,-1.58 -3.79,-1.58 -1.16,0 -3.48,1.37 -4.95,2.95l0 0zm55.61 -0.84c-1.16,1.15 -2.11,3.05 -2.11,4.21 0,1.16 2,5.58 4.32,9.79 2.42,4.11 5.58,8.85 7.16,10.54 1.58,1.68 3.8,2.84 5.38,2.84 1.58,0 3.26,-0.63 4,-1.26 0.74,-0.74 1.26,-2.43 1.26,-3.69 0,-1.37 -2,-6.32 -4.42,-11.06 -2.53,-4.63 -5.58,-9.69 -6.85,-11.06 -1.37,-1.26 -3.37,-2.42 -4.53,-2.42 -1.16,0 -3.05,0.95 -4.21,2.11l0 0zm-27.17 7.05c-2.22,1.69 -2.43,2.95 -2.53,13.48 -0.11,7.27 0.31,12.43 1.05,14.01 1.05,1.9 2,2.32 5.16,2.11 3.06,-0.21 4.32,-0.95 5.27,-2.95 0.84,-1.58 1.37,-6.85 1.37,-13.17 0,-6.95 -0.42,-11.16 -1.27,-12.32 -0.73,-0.95 -2.52,-2.1 -4,-2.42 -1.82,-0.42 -3.51,0 -5.05,1.26z"/>
  </g>
 </g>
</svg>
